<?xml version="1.0" encoding="UTF-8"?>
<svg id="a" data-name="图层 1" xmlns="http://www.w3.org/2000/svg" viewBox="0 0 512 512">
  <rect width="512" height="512" rx="128" ry="128" style="fill: #191919; stroke-width: 0px;"/>
  <path d="m112,400c31.81-8.22,52.83-43.2,70-69.43,36.95-58.87,69.87-123.78,119.41-174.48,25.16-25.09,60.97-52.45,98.59-44.09-17.08,4.37-30.81,13.82-42.94,25.79-11.76,11.53-21.87,24.84-31.57,38.6-29.06,41.91-54.85,88.52-85.05,130.82-21.11,29.24-44.38,58.92-74.97,79.24-15.52,10.07-34.84,18.01-53.48,13.56h0Z" style="fill: #fff; stroke-width: 0px;"/>
  <path d="m128,320c4.52-1.45,6.68-9.14,8.4-13.24,1.86-5.16,3.57-10.43,5.3-15.72,17.08-53.89,43.38-107.16,86.91-144.88,17.34-14.98,37.39-27.52,59.39-34.17-4.16,3.96-8.33,7.7-12.35,11.57-11.8,11.25-23.19,23.35-33.62,35.86-35.54,41.79-60.43,90.39-89.77,136.74-4.42,6.24-16.09,25.12-24.26,23.83h0Z" style="fill: #fff; stroke-width: 0px;"/>
  <path d="m224,384c35.57-8.24,61.61-60.5,80.77-90.03,16.66-27.11,33.73-55.26,55.04-79.57,7.32-8.17,15.14-16.1,24.19-22.4-5.02,9.66-9.74,19.18-14.37,28.94-24.97,51.37-59.78,130.84-112.36,157.96-10.11,4.98-22.24,7.82-33.27,5.1h0Z" style="fill: #fff; stroke-width: 0px;"/>
</svg>